<svg xmlns="http://www.w3.org/2000/svg" viewBox="0 0 36 36"><g id="Layer_2" data-name="Layer 2"><g id="Layer_1-2" data-name="Layer 1"><path d="M36,4H16a2,2,0,0,1-2-2V0H10V2A2,2,0,0,1,8,4H0V8H8a2,2,0,0,1,2,2v2h4V10a2,2,0,0,1,2-2H36ZM14,6h0a2,2,0,0,1-2,2h0a2,2,0,0,1-2-2h0a2,2,0,0,1,2-2h0A2,2,0,0,1,14,6Z"/><path d="M0,16H20a2,2,0,0,0,2-2V12h4v2a2,2,0,0,0,2,2h8v4H28a2,2,0,0,0-2,2v2H22V22a2,2,0,0,0-2-2H0Zm22,2h0a2,2,0,0,0,2,2h0a2,2,0,0,0,2-2h0a2,2,0,0,0-2-2h0A2,2,0,0,0,22,18Z"/><path d="M36,28H16a2,2,0,0,1-2-2V24H10v2a2,2,0,0,1-2,2H0v4H8a2,2,0,0,1,2,2v2h4V34a2,2,0,0,1,2-2H36ZM14,30h0a2,2,0,0,1-2,2h0a2,2,0,0,1-2-2h0a2,2,0,0,1,2-2h0A2,2,0,0,1,14,30Z"/></g></g></svg>