<svg xmlns="http://www.w3.org/2000/svg" viewBox="0 0 204 32"><defs><style>.cls-1{fill:#ccc;}</style></defs><g id="Layer_2" data-name="Layer 2"><g id="Layer_1-2" data-name="Layer 1"><path class="cls-1" d="M92,32V8h2a2,2,0,0,0,2-2h0a2,2,0,0,0-2-2H92V0h4V2a2,2,0,0,0,2,2h2V6a2,2,0,0,0,2,2h0a2,2,0,0,0,2-2V4h2a2,2,0,0,0,2-2V0h4V4h-2a2,2,0,0,0-2,2h0a2,2,0,0,0,2,2h2V32h-4V10a2,2,0,0,0-2-2h0a2,2,0,0,0-2,2v2h-4V10a2,2,0,0,0-2-2h0a2,2,0,0,0-2,2V32Z"/><path class="cls-1" d="M120,0V2a2,2,0,0,1-2,2h-2v8h2a2,2,0,0,1,2,2h0a2,2,0,0,1-2,2h-2V28h2a2,2,0,0,1,2,2v2h12V28H122a2,2,0,0,1-2-2V18a2,2,0,0,1,2-2h10V12H122a2,2,0,0,1-2-2V6a2,2,0,0,1,2-2h10V0Z"/><path class="cls-1" d="M0,32V8H2A2,2,0,0,0,4,6H4A2,2,0,0,0,2,4H0V0H4V2A2,2,0,0,0,6,4H8V6a2,2,0,0,0,2,2h0a2,2,0,0,0,2-2V4h2a2,2,0,0,0,2-2V0h4V4H18a2,2,0,0,0-2,2h0a2,2,0,0,0,2,2h2V32H16V10a2,2,0,0,0-2-2h0a2,2,0,0,0-2,2v2H8V10A2,2,0,0,0,6,8H6a2,2,0,0,0-2,2V32Z"/><path class="cls-1" d="M28,0V2a2,2,0,0,1-2,2H24v8h2a2,2,0,0,1,2,2h0a2,2,0,0,1-2,2H24V28h2a2,2,0,0,1,2,2v2H40V28H30a2,2,0,0,1-2-2V18a2,2,0,0,1,2-2H40V12H30a2,2,0,0,1-2-2V6a2,2,0,0,1,2-2H40V0Z"/><path class="cls-1" d="M44,0V4h6a2,2,0,0,1,2,2V32h4V6a2,2,0,0,1,2-2h6V0H56V2a2,2,0,0,1-2,2h0a2,2,0,0,1-2-2V0Z"/><path class="cls-1" d="M172,0V2a2,2,0,0,1-2,2h-2V6a2,2,0,0,1-2,2h-2V32h4V10a2,2,0,0,1,2-2h2V6a2,2,0,0,1,2-2h0a2,2,0,0,1,2,2V8h2a2,2,0,0,1,2,2V32h4V8h-2a2,2,0,0,1-2-2V4h-2a2,2,0,0,1-2-2V0Z"/><path class="cls-1" d="M76,0V2a2,2,0,0,1-2,2H72V6a2,2,0,0,1-2,2H68V32h4V10a2,2,0,0,1,2-2h2V6a2,2,0,0,1,2-2h0a2,2,0,0,1,2,2V8h2a2,2,0,0,1,2,2V32h4V8H86a2,2,0,0,1-2-2V4H82a2,2,0,0,1-2-2V0Z"/><path class="cls-1" d="M204,4V8h-4V6a2,2,0,0,0-2-2h-4a2,2,0,0,0-2,2v4a2,2,0,0,0,2,2h2v2a2,2,0,0,0,2,2h2v2a2,2,0,0,0,2,2h2v8h-2a2,2,0,0,0-2,2v2h-8V30a2,2,0,0,0-2-2h-2V24h4v2a2,2,0,0,0,2,2h4a2,2,0,0,0,2-2V22a2,2,0,0,0-2-2h-2V18a2,2,0,0,0-2-2h-2V14a2,2,0,0,0-2-2h-2V4h2a2,2,0,0,0,2-2V0h8V2a2,2,0,0,0,2,2Z"/><path class="cls-1" d="M152,4V8h-4V6a2,2,0,0,0-2-2h-4a2,2,0,0,0-2,2v4a2,2,0,0,0,2,2h2v2a2,2,0,0,0,2,2h2v2a2,2,0,0,0,2,2h2v8h-2a2,2,0,0,0-2,2v2h-8V30a2,2,0,0,0-2-2h-2V24h4v2a2,2,0,0,0,2,2h4a2,2,0,0,0,2-2V22a2,2,0,0,0-2-2h-2V18a2,2,0,0,0-2-2h-2V14a2,2,0,0,0-2-2h-2V4h2a2,2,0,0,0,2-2V0h8V2a2,2,0,0,0,2,2Z"/><rect class="cls-1" x="156" width="4" height="32"/></g></g></svg>